# xmcd
#
# Track frame offsets:
#	150
#	15011
#	30542
#	44623
#
# Disc length: 780 seconds
#
# Revision: 0
# Processed by: cddbd v1.5.2PL0 Copyright (c) Steve Scherf et al.
# Submitted via: audiograbber 1.83.01
#
DISCID=21030a04
DTITLE=Franzi Rockzz - Cardboard Box (EP)
DYEAR=2016
DGENRE=Blues Rock
TTITLE0=Heavens Gate
TTITLE1=My Perception
TTITLE2=Cardboard Box
TTITLE3=Road to Perdition
EXTD=All Songs written, composed and recorded by Franzi Rockzz.
EXTT0=
EXTT1=
EXTT2=
EXTT3=
PLAYORDER=
